<?xml version="1.0" standalone="no"?>
<!DOCTYPE svg PUBLIC "-//W3C//DTD SVG 20010904//EN"
 "http://www.w3.org/TR/2001/REC-SVG-20010904/DTD/svg10.dtd">
<svg version="1.0" xmlns="http://www.w3.org/2000/svg"
 width="512.000000pt" height="512.000000pt" viewBox="0 0 512.000000 512.000000"
 preserveAspectRatio="xMidYMid meet">

<g transform="translate(0.000000,512.000000) scale(0.100000,-0.100000)"
fill="#000000" stroke="none">
<path d="M2425 5113 c-141 -17 -311 -76 -439 -151 -93 -54 -217 -172 -260
-247 -16 -27 -43 -66 -59 -85 -95 -109 -170 -267 -197 -414 -17 -91 -7 -300
19 -426 26 -122 73 -266 116 -355 l33 -70 1 164 1 165 55 135 c84 211 137 444
119 537 -4 20 -2 34 4 34 6 0 39 -13 75 -29 36 -16 125 -50 197 -75 468 -163
848 -175 1125 -36 l75 38 9 -37 c6 -20 17 -65 26 -101 35 -137 98 -349 137
-453 l39 -108 -11 -97 c-6 -53 -13 -110 -17 -127 l-5 -30 22 20 c47 41 92 184
125 390 8 55 23 138 31 185 56 296 13 507 -132 646 -36 34 -79 84 -96 110 -75
120 -261 269 -415 334 -163 69 -410 104 -578 83z"/>
<path d="M1280 1860 c-344 -157 -649 -302 -679 -322 -171 -116 -305 -306 -363
-513 -21 -77 -22 -100 -26 -553 l-3 -472 455 0 c414 0 456 2 456 16 0 9 -34
229 -75 490 -69 432 -74 478 -63 521 15 60 85 133 144 151 30 9 158 12 453 12
l412 0 -5 53 c-4 28 -22 237 -41 462 -20 226 -36 417 -38 426 -1 12 -148 -51
-627 -271z"/>
<path d="M3210 2121 c0 -11 -18 -216 -40 -456 -22 -240 -40 -445 -40 -456 0
-17 18 -18 433 -21 l432 -3 47 -28 c52 -30 92 -88 103 -147 4 -23 -21 -202
-69 -509 -42 -260 -76 -480 -76 -487 0 -12 77 -14 455 -14 l455 0 0 433 c0
246 -5 460 -10 497 -43 268 -218 514 -455 638 -71 38 -1220 572 -1229 572 -3
0 -6 -9 -6 -19z"/>
</g>
</svg>
